<svg width="40" height="40" viewBox="0 0 40 40" fill="none" xmlns="http://www.w3.org/2000/svg">
<path d="M36.1111 29.7222C36.8782 29.7222 37.5 30.344 37.5 31.1111C37.5 31.8782 36.8782 32.5 36.1111 32.5H3.88889C3.12183 32.5 2.5 31.8782 2.5 31.1111C2.5 30.344 3.12183 29.7222 3.88889 29.7222H36.1111ZM36.1111 18.6111C36.8782 18.6111 37.5 19.2329 37.5 20C37.5 20.7671 36.8782 21.3889 36.1111 21.3889H3.88889C3.12183 21.3889 2.5 20.7671 2.5 20C2.5 19.2329 3.12183 18.6111 3.88889 18.6111H36.1111ZM36.1111 7.5C36.8782 7.5 37.5 8.12183 37.5 8.88889C37.5 9.65595 36.8782 10.2778 36.1111 10.2778H3.88889C3.12183 10.2778 2.5 9.65595 2.5 8.88889C2.5 8.12183 3.12183 7.5 3.88889 7.5H36.1111Z" fill="#333333"/>
</svg>
