<svg width="39" height="39" viewBox="0 0 39 39" fill="none" xmlns="http://www.w3.org/2000/svg">
<g clip-path="url(#clip0_440_3347)">
<path d="M27.4922 7.97565L27.6993 8.15613V7.88141V4.64647C27.6993 4.08449 28.1549 3.62889 28.7169 3.62889H33.2872C33.8492 3.62889 34.3048 4.08449 34.3048 4.64647V13.855V13.9119L34.3477 13.9493C34.4874 14.0711 34.9718 14.493 35.564 15.009C36.7726 16.0621 38.4306 17.5067 38.5259 17.59L38.5261 17.5902C38.9498 17.9595 38.9939 18.6022 38.6247 19.026L38.713 19.1029L38.6247 19.026C38.2556 19.4497 37.6128 19.4939 37.189 19.1247L36.797 18.7831L36.5899 18.6026V18.8774V36.6387C36.5899 37.2006 36.1343 37.6562 35.5723 37.6562H3.42781C2.86584 37.6562 2.41023 37.2006 2.41023 36.6387V18.8774V18.6026L2.20312 18.7831L1.81115 19.1247C1.38741 19.4938 0.744632 19.4497 0.375391 19.026C0.00620879 18.6021 0.0503969 17.9594 0.474097 17.5902L0.391983 17.496L0.474104 17.5902L18.8315 1.59413C19.2147 1.26029 19.7854 1.26029 20.1686 1.59412L27.4922 7.97565ZM29.8595 5.66404H29.7345V5.78904V9.87262V9.92949L29.7773 9.96686L32.0625 11.9581L32.2696 12.1385V11.8638V5.78904V5.66404H32.1446H29.8595ZM18.2325 35.4961V35.6211H18.3575H20.6427H20.7677V35.4961V27.0782C20.7677 26.6476 21.0387 26.2636 21.4444 26.1194C23.8165 25.2761 25.4141 23.0771 25.4141 20.6426C25.4141 18.79 24.4887 17.0735 23.0015 15.9875L22.8028 15.8424V16.0885V20.6426C22.8028 20.9124 22.6956 21.1713 22.5048 21.362L22.5048 21.362L20.2196 23.6472C19.8222 24.0446 19.1779 24.0446 18.7806 23.6472L18.6922 23.7356L18.7806 23.6472L16.4954 21.362C16.3046 21.1712 16.1973 20.9124 16.1973 20.6426V16.102V15.8519L15.9973 16.002C14.5561 17.0834 13.6622 18.7919 13.6622 20.6426C13.6622 23.0914 15.2274 25.2917 17.5557 26.1194L17.5903 26.0223L17.5557 26.1194C17.9615 26.2636 18.2325 26.6476 18.2325 27.0782V35.4961ZM34.4298 35.6211H34.5548V35.4961V16.8861V16.8293L34.5119 16.7919L19.5822 3.78258L19.5001 3.71103L19.418 3.78258L4.48827 16.7918L4.44539 16.8292V16.8861V35.4961V35.6211H4.57039H16.0723H16.1973V35.4961V27.84V27.7611L16.126 27.7272C13.4049 26.4332 11.627 23.6788 11.627 20.6426C11.627 17.336 13.7353 14.3639 16.874 13.2481C17.1857 13.1375 17.5316 13.1849 17.8016 13.3756C18.0718 13.5663 18.2324 13.8763 18.2324 14.2069V20.1693V20.2211L18.269 20.2577L19.4116 21.4003L19.5 21.4887L19.5884 21.4003L20.731 20.2577L20.7676 20.2211V20.1693V14.2069C20.7676 13.8763 20.9283 13.5663 21.1984 13.3756C21.4686 13.1849 21.8146 13.1374 22.1261 13.2481C25.3118 14.3806 27.4493 17.3536 27.4493 20.6426C27.4493 23.6668 25.6422 26.4237 22.8745 27.7285L22.8028 27.7623V27.8416V35.4961V35.6211H22.9278H34.4298Z" fill="white" stroke="#5BC3E3" stroke-width="0.25"/>
</g>
<defs>
<clipPath id="clip0_440_3347">
<rect width="39" height="39" fill="white"/>
</clipPath>
</defs>
</svg>
