<svg width="39" height="39" viewBox="0 0 39 39" fill="none" xmlns="http://www.w3.org/2000/svg">
<path d="M34.3598 15.5087H23.8839V7.09092H34.3598C34.8823 7.09092 35.306 6.66729 35.306 6.14474C35.306 5.6222 34.8823 5.19856 34.3598 5.19856H23.7466C23.4693 4.49744 22.7852 4 21.9866 4H20.0942C19.7497 4 19.4266 4.09304 19.148 4.25459C18.8695 4.09304 18.5464 4 18.2019 4H16.3095C15.5109 4 14.8268 4.49744 14.5495 5.19856H3.94618C3.42364 5.19856 3 5.6222 3 6.14474C3 6.66729 3.42364 7.09092 3.94618 7.09092H14.4171V15.5087H3.94618C3.42364 15.5087 3 15.9323 3 16.4548C3 16.9774 3.42364 17.401 3.94618 17.401H14.5495C14.8268 18.1021 15.5109 18.5995 16.3095 18.5995H18.2019C18.5464 18.5995 18.8695 18.5065 19.148 18.3449C19.4266 18.5065 19.7497 18.5995 20.0942 18.5995H21.9866C22.7851 18.5995 23.4693 18.1021 23.7466 17.401H34.3598C34.8823 17.401 35.306 16.9774 35.306 16.4548C35.306 15.9323 34.8823 15.5087 34.3598 15.5087ZM16.3095 16.7072L16.3093 5.89236H18.2019V16.7072H16.3095ZM21.9866 16.7072H20.0942V5.89236H21.9866V16.7072Z" fill="white"/>
<path d="M20.7591 22.0511C19.8844 21.1597 19.5304 20.9966 19.1484 20.9966C18.7664 20.9966 18.4123 21.1597 17.5377 22.0511C16.9848 22.6146 16.3796 23.319 15.8336 24.0345C14.7271 25.4846 13.4082 27.5683 13.4082 29.26C13.4082 32.4251 15.9832 35.0001 19.1484 35.0001C22.3135 35.0001 24.8885 32.4251 24.8885 29.26C24.8885 27.5683 23.5696 25.4846 22.4632 24.0345C21.9171 23.3189 21.3119 22.6145 20.7591 22.0511V22.0511ZM19.1484 33.1078C17.0267 33.1078 15.3006 31.3817 15.3006 29.26C15.3006 28.4233 15.9678 27.0378 17.131 25.4586C17.9205 24.3868 18.6931 23.5559 19.1484 23.1208C19.6037 23.5559 20.3763 24.3868 21.1658 25.4586C22.329 27.0378 22.9962 28.4233 22.9962 29.26C22.9962 31.3817 21.27 33.1078 19.1484 33.1078V33.1078Z" fill="white"/>
</svg>
