<svg width="20" height="20" viewBox="0 0 20 20" fill="none" xmlns="http://www.w3.org/2000/svg">
<path d="M10.1488 0.952393C6.1282 0.952393 2.85718 4.22341 2.85718 8.24406C2.85718 9.53104 3.19721 10.7963 3.84047 11.9031C3.99044 12.1611 4.15807 12.4126 4.3388 12.6505L9.83203 20H10.4656L15.9589 12.6505C16.1396 12.4126 16.3072 12.1612 16.4572 11.9031C17.1005 10.7963 17.4405 9.53104 17.4405 8.24406C17.4405 4.22341 14.1695 0.952393 10.1488 0.952393ZM10.1488 10.6622C8.81547 10.6622 7.73069 9.57743 7.73069 8.24406C7.73069 6.91069 8.81547 5.8259 10.1488 5.8259C11.4822 5.8259 12.567 6.91069 12.567 8.24406C12.567 9.57743 11.4822 10.6622 10.1488 10.6622Z" fill="#5BC3E3"/>
</svg>
