<svg width="20" height="20" viewBox="0 0 20 20" fill="none" xmlns="http://www.w3.org/2000/svg">
<path d="M18.8415 4.90417L13.3824 10.328L18.8415 15.7519C18.9401 15.5456 19 15.3176 19 15.0741V5.58195C19 5.33842 18.9401 5.11044 18.8415 4.90417Z" fill="#5BC3E3"/>
<path d="M17.4177 4H2.58183C2.3383 4 2.11031 4.05987 1.90405 4.15855L8.88125 11.1006C9.49817 11.7175 10.5014 11.7175 11.1183 11.1006L18.0955 4.15855C17.8892 4.05987 17.6612 4 17.4177 4Z" fill="#5BC3E3"/>
<path d="M1.15855 4.90417C1.05987 5.11044 1 5.33842 1 5.58195V15.0741C1 15.3176 1.05987 15.5457 1.15855 15.7519L6.61757 10.328L1.15855 4.90417Z" fill="#5BC3E3"/>
<path d="M12.6365 11.0739L11.864 11.8463C10.8361 12.8743 9.16344 12.8743 8.13551 11.8463L7.36306 11.0739L1.90405 16.4977C2.11031 16.5964 2.3383 16.6563 2.58183 16.6563H17.4177C17.6612 16.6563 17.8892 16.5964 18.0955 16.4977L12.6365 11.0739Z" fill="#5BC3E3"/>
</svg>
