<svg width="39" height="39" viewBox="0 0 39 39" fill="none" xmlns="http://www.w3.org/2000/svg">
<path d="M26.6654 21.0054L26.6246 20.9646L24.506 18.8461L24.4353 18.7754L24.506 18.7047L30.105 13.1057L30.1757 13.035L30.2464 13.1057L30.9715 13.8307L30.9055 13.8967L30.9715 13.8307C31.3953 14.2546 32.1084 14.1709 32.4194 13.6525L32.4944 13.6975L32.4194 13.6525L36.7699 6.40177C36.9884 6.03765 36.931 5.57154 36.6307 5.27134L36.7014 5.20062L36.6307 5.27133L33.7303 2.37105L33.7303 2.37104C33.4301 2.07079 32.9639 2.01346 32.5999 2.23186L25.3491 6.58231C24.8328 6.89211 24.746 7.60524 25.1709 8.03019L25.896 8.75524L25.9667 8.82595L25.896 8.89666L20.297 14.4956L20.2263 14.5663L20.1556 14.4956L18.037 12.3771L17.9962 12.3363L18.0111 12.2805C18.7478 9.52802 17.9964 6.53545 15.9129 4.45193C13.3074 1.8465 9.40637 1.43332 6.35455 3.0772C6.09704 3.21595 5.92028 3.46822 5.87777 3.75764C5.83532 4.04706 5.93218 4.33949 6.13905 4.54636L9.98731 8.39463C10.4262 8.83352 10.4262 9.54738 9.98731 9.98615L26.6654 21.0054ZM26.6654 21.0054L26.7211 20.9905C29.4798 20.2522 32.4709 21.0099 34.5497 23.0887C37.164 25.703 37.5622 29.6066 35.9245 32.647C35.7858 32.9046 35.5335 33.0814 35.2441 33.1238C34.9546 33.1661 34.6621 33.0694 34.4554 32.8625L34.3911 32.9268L34.4554 32.8625L30.6071 29.0143C30.1683 28.5754 29.4544 28.5754 29.0155 29.0143L26.6654 21.0054ZM34.792 30.5818L34.6702 30.46L31.9158 27.7056C30.7555 26.5454 28.8672 26.5453 27.7068 27.7056C26.5465 28.8659 26.5465 30.7542 27.7068 31.9146L30.4612 34.669L30.583 34.7908L30.4168 34.8362C28.2901 35.4169 26.0036 34.8446 24.3987 33.2398C22.7001 31.5412 22.1235 28.9811 22.9295 26.7168C23.0494 26.3802 22.9647 26.0047 22.7121 25.7521L22.7749 25.6893L22.7121 25.7521L13.2495 16.2896C12.9974 16.0375 12.6222 15.9521 12.2848 16.0721C10.0204 16.8781 7.46042 16.3015 5.76185 14.603L5.83256 14.5322L5.76185 14.6029C4.15699 12.9981 3.58479 10.7116 4.16546 8.58488L4.21083 8.41871L4.33264 8.54051L7.08703 11.2949C8.24733 12.4552 10.1356 12.4551 11.2961 11.2949C11.2961 11.2949 11.2961 11.2949 11.2961 11.2949M34.792 30.5818L11.3668 11.3656L11.2961 11.2949M34.792 30.5818L34.8374 30.4156C35.4181 28.2889 34.8459 26.0025 33.241 24.3975C31.5424 22.699 28.9822 22.1223 26.718 22.9283C26.3814 23.0481 26.0059 22.9635 25.7533 22.7108L16.2908 13.2484L16.2908 13.2484C16.0382 12.9958 15.9535 12.6203 16.0733 12.2837C16.8793 10.0193 16.3028 7.45927 14.6042 5.76069C12.9993 4.15584 10.7127 3.58349 8.58604 4.1643L8.41987 4.20968L8.54167 4.33148L11.2961 7.08587C12.4564 8.24631 12.4564 10.1346 11.2961 11.2949M34.792 30.5818L11.2961 11.2949M8.39571 9.98615C8.83462 10.4251 9.5484 10.4251 9.9873 9.98617L29.0155 29.0143C28.5766 29.453 28.5766 30.1669 29.0155 30.6058L32.8638 34.4541C33.0706 34.6609 33.1675 34.9534 33.125 35.2428C33.0825 35.5322 32.9058 35.7845 32.6483 35.9232C29.5964 37.5671 25.6954 37.1539 23.0899 34.5484C21.0064 32.4649 20.255 29.4723 20.9917 26.7199L21.0066 26.6641L20.9658 26.6233L20.2975 25.955L20.2268 25.8843L20.1561 25.955L10.6844 35.4269C8.72429 37.387 5.53485 37.3869 3.57477 35.4269C1.60781 33.4599 1.60901 30.283 3.57477 28.3172L13.0465 18.8453L13.1172 18.7746L13.0465 18.7039L12.3783 18.0358L12.3375 17.995L12.2817 18.0099C9.52304 18.7482 6.53203 17.9905 4.45316 15.9116C1.83884 13.2974 1.44061 9.39376 3.07828 6.35334C3.21705 6.0958 3.46933 5.91898 3.75873 5.87654L3.75875 5.87654C4.04807 5.83403 4.34057 5.93094 4.54745 6.13782L8.39571 9.98615ZM32.9877 4.24591L32.9325 4.1907L32.8656 4.23087L27.4276 7.49368L27.3177 7.55958L27.4083 7.65014L31.3516 11.5933L31.4421 11.6839L31.508 11.574L34.7708 6.13606L34.811 6.06911L34.7557 6.0139L32.9877 4.24591ZM27.3461 10.2054L27.2754 10.1347L27.2047 10.2054L21.6057 15.8044L21.535 15.8751L21.6057 15.9458L23.0559 17.3959L23.1266 17.4666L23.1973 17.3959L28.7962 11.7969L28.8669 11.7262L28.7962 11.6555L27.3461 10.2054ZM4.88346 34.1183L4.94548 34.0562L4.88346 34.1183C6.12207 35.3568 8.13713 35.3568 9.37567 34.1183L18.8473 24.6464L18.918 24.5757L18.8473 24.5049L14.4965 20.1541L14.4258 20.0834L14.3551 20.1541L4.88346 29.626C3.64011 30.8694 3.6409 32.8757 4.88346 34.1183Z" fill="white" stroke="#5BC3E3" stroke-width="0.2"/>
<path d="M13.9534 23.9447C13.9534 23.9447 13.9534 23.9447 13.9534 23.9447C14.3148 23.5834 14.9007 23.5834 15.2621 23.9447C15.6233 24.3061 15.6234 24.892 15.262 25.2534C15.262 25.2534 15.262 25.2534 15.262 25.2534L8.99611 31.5196C8.63469 31.881 8.0489 31.881 7.68742 31.5196C7.32607 31.1582 7.32607 30.5723 7.68742 30.2109L13.9534 23.9447Z" fill="white" stroke="#5BC3E3" stroke-width="0.2"/>
</svg>
